<svg viewBox="167.34032983508246 153.60000000000002 686.2488755622189 465.408" xmlns:xlink="http://www.w3.org/1999/xlink" xmlns="http://www.w3.org/2000/svg" id="illustration" style="max-height: 500px" width="686.2488755622189" height="465.408"><defs><style>.cls-1,.cls-10,.cls-14,.cls-15,.cls-18,.cls-22,.cls-23,.cls-24,.cls-4,.cls-6,.cls-8{fill:none;}.cls-2{fill:#eaf9f3;}.cls-3{clip-path:url(#clip-path);}.cls-4,.cls-6{stroke:#b8d8c7;}.cls-10,.cls-14,.cls-15,.cls-18,.cls-22,.cls-23,.cls-24,.cls-4,.cls-6,.cls-8{stroke-linecap:round;stroke-linejoin:round;}.cls-10,.cls-14,.cls-15,.cls-18,.cls-22,.cls-23,.cls-24,.cls-4{stroke-width:1.8px;}.cls-5{fill:#b8d8c7;}.cls-6{stroke-width:1.8px;}.cls-7{fill:#22272e;}.cls-10,.cls-8{stroke:#22272e;}.cls-8{stroke-width:4px;}.cls-9{fill:#6dafa7;}.cls-11{fill:#ffe779;}.cls-12{fill:#f4c2c9;}.cls-13{fill:#e26e85;}.cls-14{stroke:#63737a;}.cls-15{stroke:#fff;}.cls-16{clip-path:url(#clip-path-2);}.cls-17{fill:#f8ab5d;}.cls-18{stroke:#e26e85;}.cls-19{fill:#fff;}.cls-20{fill:#b0d7c0;}.cls-21{fill:#63737a;}.cls-22{stroke:#6dafa7;}.cls-23{stroke:#f4c2c9;}.cls-24{stroke:#ffe779;}</style><clipPath id="clip-path"><path d="M766.3,563.9,246.3,549a48.07,48.07,0,0,1-46.5-43.3l-25.1-248a48.18,48.18,0,0,1,47.2-53l578.8-8a48.21,48.21,0,0,1,48.5,54.1L815.5,521.7A48.27,48.27,0,0,1,766.3,563.9Z" class="cls-1"/></clipPath><clipPath id="clip-path-2"><path d="M575.2,277.1c-13.9-11.5-32.7-8.7-42.1-8.3s-17.7-.2-35.9-1.8c-9.9-.9-16.3,1.3-20.1,3.6a12.86,12.86,0,0,0-5.8,7.7,81.62,81.62,0,0,0-2,19.4,124.44,124.44,0,0,0,1.9,17.8c.8,7.9,1.5,16.3,1.5,20.1,0,8.3-6.1,27.7-5.8,34.6s19.7,12.8,38,13.6,49.6-7.5,54.9-8.9,5.1-6.9,3.6-16.6c-1.1-6.9-.9-24.5.8-39.4,2.9,2.5,7,6,10.7,9.3,8-8.4,17-16.2,25.7-24.2C591.6,293,581.7,282.5,575.2,277.1Z" class="cls-1"/></clipPath></defs><path d="M766.3,563.9,246.3,549a48.07,48.07,0,0,1-46.5-43.3l-25.1-248a48.18,48.18,0,0,1,47.2-53l578.8-8a48.21,48.21,0,0,1,48.5,54.1L815.5,521.7A48.27,48.27,0,0,1,766.3,563.9Z" class="cls-2"/><g class="cls-3"><path d="M341.9,608.9H-73.6a15,15,0,0,1-15-15V358.3a15,15,0,0,1,15-15H341.9a15,15,0,0,1,15,15V593.9A15,15,0,0,1,341.9,608.9Z" class="cls-4"/><path d="M891,593.1H471.9a15,15,0,0,1-15-15V233.8a15,15,0,0,1,15-15H891a15,15,0,0,1,15,15V578.1A15,15,0,0,1,891,593.1Z" class="cls-4"/><path d="M227.1,343.3H206.8a4.32,4.32,0,0,1-4.3-3.8l-1.6-14.4a4.33,4.33,0,0,1,4.3-4.8h23.5a4.34,4.34,0,0,1,4.3,4.8l-1.6,14.4A4.41,4.41,0,0,1,227.1,343.3Z" class="cls-4"/><path d="M214.5,320.3s-8-.8-9.6-11.6c0,0,7.2,2.1,9.5,7.2,0,0,1-11.4,6.4-12.5,0,0,2.4,8.5-1.4,12.7,0,0,2.9-4.8,10.3-4.7a13.6,13.6,0,0,1-9.2,8.8" class="cls-5"/><path d="M338.7,393H248.5a4.23,4.23,0,0,1-4.2-4.2V361.4a4.23,4.23,0,0,1,4.2-4.2h90.2a4.23,4.23,0,0,1,4.2,4.2v27.4A4.1,4.1,0,0,1,338.7,393Z" class="cls-4"/><path d="M304,366.8H283.2a1.54,1.54,0,0,1-1.5-1.5h0a1.54,1.54,0,0,1,1.5-1.5H304a1.54,1.54,0,0,1,1.5,1.5h0A1.47,1.47,0,0,1,304,366.8Z" class="cls-5"/><path d="M338.7,438.8H248.5a4.23,4.23,0,0,1-4.2-4.2V407.2a4.23,4.23,0,0,1,4.2-4.2h90.2a4.23,4.23,0,0,1,4.2,4.2v27.4A4.1,4.1,0,0,1,338.7,438.8Z" class="cls-4"/><path d="M304,412.6H283.2a1.54,1.54,0,0,1-1.5-1.5h0a1.54,1.54,0,0,1,1.5-1.5H304a1.54,1.54,0,0,1,1.5,1.5h0A1.47,1.47,0,0,1,304,412.6Z" class="cls-5"/><path d="M801.9,471.1H711.7a4.23,4.23,0,0,1-4.2-4.2V439.5a4.23,4.23,0,0,1,4.2-4.2h90.2a4.23,4.23,0,0,1,4.2,4.2v27.4A4.1,4.1,0,0,1,801.9,471.1Z" class="cls-4"/><path d="M767.2,445H746.4a1.54,1.54,0,0,1-1.5-1.5h0a1.54,1.54,0,0,1,1.5-1.5h20.8a1.54,1.54,0,0,1,1.5,1.5h0A1.54,1.54,0,0,1,767.2,445Z" class="cls-5"/><path d="M686.1,471.1H595.9a4.23,4.23,0,0,1-4.2-4.2V439.5a4.23,4.23,0,0,1,4.2-4.2h90.2a4.23,4.23,0,0,1,4.2,4.2v27.4A4.23,4.23,0,0,1,686.1,471.1Z" class="cls-4"/><path d="M651.4,445H630.6a1.54,1.54,0,0,1-1.5-1.5h0a1.54,1.54,0,0,1,1.5-1.5h20.8a1.54,1.54,0,0,1,1.5,1.5h0A1.54,1.54,0,0,1,651.4,445Z" class="cls-5"/><path d="M223.7,393H133.5a4.23,4.23,0,0,1-4.2-4.2V361.4a4.23,4.23,0,0,1,4.2-4.2h90.2a4.23,4.23,0,0,1,4.2,4.2v27.4A4.1,4.1,0,0,1,223.7,393Z" class="cls-4"/><path d="M189,366.8H168.2a1.54,1.54,0,0,1-1.5-1.5h0a1.54,1.54,0,0,1,1.5-1.5H189a1.54,1.54,0,0,1,1.5,1.5h0A1.42,1.42,0,0,1,189,366.8Z" class="cls-5"/><path d="M223.7,438.8H133.5a4.23,4.23,0,0,1-4.2-4.2V407.2a4.23,4.23,0,0,1,4.2-4.2h90.2a4.23,4.23,0,0,1,4.2,4.2v27.4A4.1,4.1,0,0,1,223.7,438.8Z" class="cls-4"/><path d="M189,412.6H168.2a1.54,1.54,0,0,1-1.5-1.5h0a1.54,1.54,0,0,1,1.5-1.5H189a1.54,1.54,0,0,1,1.5,1.5h0A1.42,1.42,0,0,1,189,412.6Z" class="cls-5"/><path d="M933.2,323.6h-455a4.65,4.65,0,0,1-4.6-4.6V239.3a4.65,4.65,0,0,1,4.6-4.6h455a4.65,4.65,0,0,1,4.6,4.6V319A4.53,4.53,0,0,1,933.2,323.6Z" class="cls-4"/><path d="M933.2,422.6h-455a4.65,4.65,0,0,1-4.6-4.6V338.3a4.65,4.65,0,0,1,4.6-4.6h455a4.65,4.65,0,0,1,4.6,4.6V418A4.59,4.59,0,0,1,933.2,422.6Z" class="cls-4"/><rect height="50.3" width="9.9" y="273.3" x="504.3" class="cls-4"/><rect height="36.6" width="10.3" y="287" x="514.1" class="cls-4"/><rect height="50.3" width="9.9" y="372.1" x="802.6" class="cls-4"/><rect height="36.6" width="10.3" y="385.8" x="812.5" class="cls-4"/><rect height="50.3" width="9.9" y="372.1" x="782.5" class="cls-4"/><rect transform="translate(160.33 1011.69) rotate(-72.48)" height="9.9" width="50.3" y="391.52" x="745.2" class="cls-6"/><rect height="36.6" width="10.3" y="385.8" x="792.4" class="cls-4"/><rect height="50.3" width="9.9" y="273.3" x="669.1" class="cls-4"/><rect height="36.6" width="10.3" y="287" x="679" class="cls-4"/><rect height="50.3" width="9.9" y="273.3" x="571.3" class="cls-4"/><rect transform="translate(106.95 741.23) rotate(-72.48)" height="9.9" width="50.3" y="292.7" x="534" class="cls-6"/><rect height="36.6" width="10.3" y="287" x="581.2" class="cls-4"/><path d="M812.4,279.9l1.1-14.9a1.65,1.65,0,0,0-1.7-1.8h-8.6a1.71,1.71,0,0,0-1.7,1.8l1.1,14.9s-9,5.8-8.9,10.6c.1,3.7,2.3,21.4,3.3,29.2a4.32,4.32,0,0,0,4.3,3.8h12.4a4.32,4.32,0,0,0,4.3-3.8c1-7.8,3.2-25.5,3.3-29.2C821.4,285.7,812.4,279.9,812.4,279.9Z" class="cls-5"/><path d="M772.5,279.9l1.1-14.9a1.65,1.65,0,0,0-1.7-1.8h-8.6a1.71,1.71,0,0,0-1.7,1.8l1.1,14.9s-9,5.8-8.9,10.6c.1,3.7,2.3,21.4,3.3,29.2a4.32,4.32,0,0,0,4.3,3.8h12.4a4.32,4.32,0,0,0,4.3-3.8c1-7.8,3.2-25.5,3.3-29.2C781.5,285.7,772.5,279.9,772.5,279.9Z" class="cls-5"/><line y2="517" x2="1129" y1="517" x1="173.2" class="cls-4"/></g><path d="M517.4,429.6l-1.3,6.3a5.78,5.78,0,0,1-5.6,4.6H497.6a5.76,5.76,0,0,1-5.6-4.6l-1.3-6.3L504,429Z" class="cls-7"/><rect height="104" width="7.2" y="437.4" x="500.3" class="cls-7"/><path d="M507.4,548h-6.9a2.11,2.11,0,0,1-2.1-2.1V526.2a2.11,2.11,0,0,1,2.1-2.1h6.9a2.11,2.11,0,0,1,2.1,2.1v19.7A2.26,2.26,0,0,1,507.4,548Z" class="cls-7"/><path d="M504.7,542s-7.3,5.9-11.2,28" class="cls-8"/><path d="M502.1,543.3s-22-5.3-34,20.8" class="cls-8"/><path d="M505.9,542.8s19.7-3.5,32.1,24.5" class="cls-8"/><circle r="8.9" cy="564.1" cx="468.1" class="cls-9"/><circle r="8.9" cy="564.1" cx="534.2" class="cls-10"/><circle r="8.9" cy="576.3" cx="492.4" class="cls-9"/><ellipse ry="12" rx="60.9" cy="419.5" cx="504.1" class="cls-11"/><ellipse ry="12" rx="60.9" cy="413.3" cx="504.1" class="cls-7"/><path d="M431.7,550.6c.7,4.7,1.6,11.3,1.2,13.7,0,0,1.7,4.1,11.1,3.5s14.2-5.7,14.2-5.7-.3-5.6-.7-11.3A65.75,65.75,0,0,1,431.7,550.6Z" class="cls-12"/><path d="M430.9,545.7s.4,2.1.8,5a66.23,66.23,0,0,0,25.9.2c-.3-5.6-.6-11.3-.6-12.5C456.9,535.9,429.7,538.2,430.9,545.7Z" class="cls-13"/><path d="M433,562.1a66.06,66.06,0,0,0-2.1,7.1c-1.5,5.7-15.4,21.3-15,24.7s2.9,6.5,13.2,6.5,22.5.6,25.9-.8a7.79,7.79,0,0,0,3-2.8,18.66,18.66,0,0,0,3.1-12.8c-.8-7.3-2.2-19.4-2.2-20.5a6.26,6.26,0,0,0-.7-2.9s-2.8,3.9-6.2,4.6-3.7-3.5-9.1-4.6-7.8,4-8.7,4.2C433.2,564.8,433,562.9,433,562.1Z" class="cls-7"/><path d="M547.3,557.8c1.7-5.1,3.4-10.4,3.9-12.3,1.1-3.9-25.8-9.2-27.6-.9l-1,4.8C529.3,555,538.6,560.1,547.3,557.8Z" class="cls-13"/><path d="M522.6,549.4,519.5,564s1.6,2.9,8.9,5.1,15.2,0,15.2,0,1.8-5.6,3.7-11.4C538.6,560.1,529.3,555,522.6,549.4Z" class="cls-12"/><path d="M520.5,559.5a19.47,19.47,0,0,0-3.3,5.9c-1.6,4-18.3,23.2-18.6,26.5s3.1,6.5,6.6,7.7,27.1,4.2,31.4,2.7,6.4-10.4,6.5-19.6a98.73,98.73,0,0,1,2.3-18.6,5.85,5.85,0,0,1-4,3.3c-3,.8-4.1-5.9-9-8.2s-9.7,2.6-10.8,3.4S520.3,560.3,520.5,559.5Z" class="cls-7"/><path d="M471.5,363.6s-9.9,8-21.5,16.3-46.3,27.6-46.2,49.1c.1,13.4,7.6,56,12.4,77.1s-.6,29.7,5.7,37.1,25,5.5,33,2.2,12.5-11.6,8.6-23.8-6.7-34.4-5.3-51a254.56,254.56,0,0,0,.3-33.3,95.14,95.14,0,0,1,16.6-8,131.37,131.37,0,0,0,14.7-6.1s30.5-.3,32.4.6,11.9,17.7,12.5,20.2c0,0-1.9,6.7-3.9,31.3s-15.6,49.1-13.1,59.3,8.6,14.7,16.9,17.2,20.2,2.2,25.5-9.1,9.1-38.3,14.4-53.5,13.6-40.5,13-52.4-16-53.2-25.3-67.6S479.1,347.4,471.5,363.6Z" class="cls-7"/><path d="M458.4,437.4s-.6-6.7-1.5-9.2" class="cls-14"/><path d="M534.7,444s1.6-7.4,3.4-11.3" class="cls-14"/><circle r="16.2" cy="430.6" cx="427.5" class="cls-14"/><circle r="16.2" cy="434.7" cx="563.3" class="cls-14"/><path d="M430.8,577.3s9.1-6.9,22,.7" class="cls-15"/><path d="M427.5,584s9.1-6.9,22,.7" class="cls-15"/><path d="M516.1,574.4s11.5-5.1,22.7,6" class="cls-15"/><path d="M512.7,580.9s11.5-5.1,22.7,6" class="cls-15"/><path d="M453.1,326.3s-2.4-1.2-4.6-6.4,5.2-6.9,5.9-4S453.1,326.3,453.1,326.3Z" class="cls-7"/><path d="M416.4,316.2s4,9.4,18,9.2c11-.1,43.7-10.9,45.8-11.8s12.4-13.8,8.8-27.7-13.5-12.8-13.5-12.8-11.6,4.2-33.5,19.6S416.8,308.8,416.4,316.2Z" class="cls-12"/><path d="M449.5,306.1s3,11.2,3.6,20.2c0,0,28-9.7,30.4-11.7s7.6-20.9,3.1-30.3S476,271.4,476,271.4a285.88,285.88,0,0,0-25.1,15.2C437.9,295.5,449.5,306.1,449.5,306.1Z" class="cls-9"/><path d="M458.8,324.3s-1.7-21.8-8.9-37.7" class="cls-10"/><path d="M575.2,277.1c-13.9-11.5-32.7-8.7-42.1-8.3s-17.7-.2-35.9-1.8c-9.9-.9-16.3,1.3-20.1,3.6a12.86,12.86,0,0,0-5.8,7.7,81.62,81.62,0,0,0-2,19.4,124.44,124.44,0,0,0,1.9,17.8c.8,7.9,1.5,16.3,1.5,20.1,0,8.3-6.1,27.7-5.8,34.6s19.7,12.8,38,13.6,49.6-7.5,54.9-8.9,5.1-6.9,3.6-16.6c-1.1-6.9-.9-24.5.8-39.4,2.9,2.5,7,6,10.7,9.3,8-8.4,17-16.2,25.7-24.2C591.6,293,581.7,282.5,575.2,277.1Z" class="cls-11"/><g class="cls-16"><path d="M476.7,384.5l.9,1a1.72,1.72,0,0,1,0,2.4l-1,.9a1.72,1.72,0,0,1-2.4,0l-.9-1a1.72,1.72,0,0,1,0-2.4l1-.9A1.63,1.63,0,0,1,476.7,384.5Z" class="cls-17"/><path d="M477,368.8l.9,1a1.72,1.72,0,0,1,0,2.4l-1,.9a1.72,1.72,0,0,1-2.4,0l-.9-1a1.72,1.72,0,0,1,0-2.4l1-.9A1.63,1.63,0,0,1,477,368.8Z" class="cls-17"/><path d="M477.2,353.1l.9,1a1.72,1.72,0,0,1,0,2.4l-1,.9a1.72,1.72,0,0,1-2.4,0l-.9-1a1.72,1.72,0,0,1,0-2.4l1-.9A1.63,1.63,0,0,1,477.2,353.1Z" class="cls-17"/><path d="M477.4,337.4l.9,1a1.72,1.72,0,0,1,0,2.4l-1,.9a1.72,1.72,0,0,1-2.4,0l-.9-1a1.72,1.72,0,0,1,0-2.4l1-.9A1.63,1.63,0,0,1,477.4,337.4Z" class="cls-17"/><path d="M477.7,321.7l.9,1a1.72,1.72,0,0,1,0,2.4l-1,.9a1.72,1.72,0,0,1-2.4,0l-.9-1a1.72,1.72,0,0,1,0-2.4l1-.9A1.63,1.63,0,0,1,477.7,321.7Z" class="cls-17"/><path d="M490.8,384.7l.9,1a1.72,1.72,0,0,1,0,2.4l-1,.9a1.72,1.72,0,0,1-2.4,0l-.9-1a1.72,1.72,0,0,1,0-2.4l1-.9A1.63,1.63,0,0,1,490.8,384.7Z" class="cls-17"/><path d="M491.1,369l.9,1a1.72,1.72,0,0,1,0,2.4l-1,.9a1.72,1.72,0,0,1-2.4,0l-.9-1a1.72,1.72,0,0,1,0-2.4l1-.9A1.63,1.63,0,0,1,491.1,369Z" class="cls-17"/><path d="M491.3,353.3l.9,1a1.72,1.72,0,0,1,0,2.4l-1,.9a1.72,1.72,0,0,1-2.4,0l-.9-1a1.72,1.72,0,0,1,0-2.4l1-.9A1.63,1.63,0,0,1,491.3,353.3Z" class="cls-17"/><path d="M491.5,337.6l.9,1a1.72,1.72,0,0,1,0,2.4l-1,.9a1.72,1.72,0,0,1-2.4,0l-.9-1a1.72,1.72,0,0,1,0-2.4l1-.9A1.63,1.63,0,0,1,491.5,337.6Z" class="cls-17"/><path d="M491.8,321.9l.9,1a1.72,1.72,0,0,1,0,2.4l-1,.9a1.72,1.72,0,0,1-2.4,0l-.9-1a1.72,1.72,0,0,1,0-2.4l1-.9A1.72,1.72,0,0,1,491.8,321.9Z" class="cls-17"/><path d="M505,384.9l.9,1a1.72,1.72,0,0,1,0,2.4l-1,.9a1.72,1.72,0,0,1-2.4,0l-.9-1a1.72,1.72,0,0,1,0-2.4l1-.9A1.63,1.63,0,0,1,505,384.9Z" class="cls-17"/><path d="M505.2,369.2l.9,1a1.72,1.72,0,0,1,0,2.4l-1,.9a1.72,1.72,0,0,1-2.4,0l-.9-1a1.72,1.72,0,0,1,0-2.4l1-.9A1.63,1.63,0,0,1,505.2,369.2Z" class="cls-17"/><path d="M505.4,353.5l.9,1a1.72,1.72,0,0,1,0,2.4l-1,.9a1.72,1.72,0,0,1-2.4,0l-.9-1a1.72,1.72,0,0,1,0-2.4l1-.9A1.63,1.63,0,0,1,505.4,353.5Z" class="cls-17"/><path d="M505.7,337.8l.9,1a1.72,1.72,0,0,1,0,2.4l-1,.9a1.72,1.72,0,0,1-2.4,0l-.9-1a1.72,1.72,0,0,1,0-2.4l1-.9A1.72,1.72,0,0,1,505.7,337.8Z" class="cls-17"/><path d="M505.9,322.1l.9,1a1.72,1.72,0,0,1,0,2.4l-1,.9a1.72,1.72,0,0,1-2.4,0l-.9-1a1.72,1.72,0,0,1,0-2.4l1-.9A1.72,1.72,0,0,1,505.9,322.1Z" class="cls-17"/><path d="M519.1,385.1l.9,1a1.72,1.72,0,0,1,0,2.4l-1,.9a1.72,1.72,0,0,1-2.4,0l-.9-1a1.72,1.72,0,0,1,0-2.4l1-.9A1.63,1.63,0,0,1,519.1,385.1Z" class="cls-17"/><path d="M519.3,369.4l.9,1a1.72,1.72,0,0,1,0,2.4l-1,.9a1.72,1.72,0,0,1-2.4,0l-.9-1a1.72,1.72,0,0,1,0-2.4l1-.9A1.63,1.63,0,0,1,519.3,369.4Z" class="cls-17"/><path d="M519.6,353.7l.9,1a1.72,1.72,0,0,1,0,2.4l-1,.9a1.72,1.72,0,0,1-2.4,0l-.9-1a1.72,1.72,0,0,1,0-2.4l1-.9A1.63,1.63,0,0,1,519.6,353.7Z" class="cls-17"/><path d="M519.8,338l.9,1a1.72,1.72,0,0,1,0,2.4l-1,.9a1.72,1.72,0,0,1-2.4,0l-.9-1a1.72,1.72,0,0,1,0-2.4l1-.9A1.72,1.72,0,0,1,519.8,338Z" class="cls-17"/><path d="M520,322.4l.9,1a1.72,1.72,0,0,1,0,2.4l-1,.9a1.72,1.72,0,0,1-2.4,0l-.9-1a1.72,1.72,0,0,1,0-2.4l1-.9A1.63,1.63,0,0,1,520,322.4Z" class="cls-17"/><path d="M533.2,385.3l.9,1a1.72,1.72,0,0,1,0,2.4l-1,.9a1.72,1.72,0,0,1-2.4,0l-.9-1a1.72,1.72,0,0,1,0-2.4l1-.9A1.63,1.63,0,0,1,533.2,385.3Z" class="cls-17"/><path d="M533.5,369.6l.9,1a1.72,1.72,0,0,1,0,2.4l-1,.9a1.72,1.72,0,0,1-2.4,0l-.9-1a1.72,1.72,0,0,1,0-2.4l1-.9A1.63,1.63,0,0,1,533.5,369.6Z" class="cls-17"/><path d="M533.7,353.9l.9,1a1.72,1.72,0,0,1,0,2.4l-1,.9a1.72,1.72,0,0,1-2.4,0l-.9-1a1.72,1.72,0,0,1,0-2.4l1-.9A1.72,1.72,0,0,1,533.7,353.9Z" class="cls-17"/><path d="M533.9,338.3l.9,1a1.72,1.72,0,0,1,0,2.4l-1,.9a1.72,1.72,0,0,1-2.4,0l-.9-1a1.72,1.72,0,0,1,0-2.4l1-.9A1.63,1.63,0,0,1,533.9,338.3Z" class="cls-17"/><path d="M534.2,322.6l.9,1a1.72,1.72,0,0,1,0,2.4l-1,.9a1.72,1.72,0,0,1-2.4,0l-.9-1a1.72,1.72,0,0,1,0-2.4l1-.9A1.63,1.63,0,0,1,534.2,322.6Z" class="cls-17"/><path d="M547.3,385.5l.9,1a1.72,1.72,0,0,1,0,2.4l-1,.9a1.72,1.72,0,0,1-2.4,0l-.9-1a1.72,1.72,0,0,1,0-2.4l1-.9A1.63,1.63,0,0,1,547.3,385.5Z" class="cls-17"/><path d="M547.6,369.8l.9,1a1.72,1.72,0,0,1,0,2.4l-1,.9a1.72,1.72,0,0,1-2.4,0l-.9-1a1.72,1.72,0,0,1,0-2.4l1-.9A1.72,1.72,0,0,1,547.6,369.8Z" class="cls-17"/><path d="M547.8,354.2l.9,1a1.72,1.72,0,0,1,0,2.4l-1,.9a1.72,1.72,0,0,1-2.4,0l-.9-1a1.72,1.72,0,0,1,0-2.4l1-.9A1.63,1.63,0,0,1,547.8,354.2Z" class="cls-17"/><path d="M548.1,338.5l.9,1a1.72,1.72,0,0,1,0,2.4l-1,.9a1.72,1.72,0,0,1-2.4,0l-.9-1a1.72,1.72,0,0,1,0-2.4l1-.9A1.63,1.63,0,0,1,548.1,338.5Z" class="cls-17"/><path d="M548.3,322.8l.9,1a1.72,1.72,0,0,1,0,2.4l-1,.9a1.72,1.72,0,0,1-2.4,0l-.9-1a1.72,1.72,0,0,1,0-2.4l1-.9A1.63,1.63,0,0,1,548.3,322.8Z" class="cls-17"/><path d="M561.5,385.7l.9,1a1.72,1.72,0,0,1,0,2.4l-1,.9a1.72,1.72,0,0,1-2.4,0l-.9-1a1.72,1.72,0,0,1,0-2.4l1-.9A1.72,1.72,0,0,1,561.5,385.7Z" class="cls-17"/><path d="M561.7,370.1l.9,1a1.72,1.72,0,0,1,0,2.4l-1,.9a1.72,1.72,0,0,1-2.4,0l-.9-1a1.72,1.72,0,0,1,0-2.4l1-.9A1.63,1.63,0,0,1,561.7,370.1Z" class="cls-17"/><path d="M561.9,354.4l.9,1a1.72,1.72,0,0,1,0,2.4l-1,.9a1.72,1.72,0,0,1-2.4,0l-.9-1a1.72,1.72,0,0,1,0-2.4l1-.9A1.63,1.63,0,0,1,561.9,354.4Z" class="cls-17"/><path d="M562.2,338.7l.9,1a1.72,1.72,0,0,1,0,2.4l-1,.9a1.72,1.72,0,0,1-2.4,0l-.9-1a1.72,1.72,0,0,1,0-2.4l1-.9A1.63,1.63,0,0,1,562.2,338.7Z" class="cls-17"/><path d="M562.4,323l.9,1a1.72,1.72,0,0,1,0,2.4l-1,.9a1.72,1.72,0,0,1-2.4,0l-.9-1a1.72,1.72,0,0,1,0-2.4l1-.9A1.63,1.63,0,0,1,562.4,323Z" class="cls-17"/><path d="M477.9,306l.9,1a1.72,1.72,0,0,1,0,2.4l-1,.9a1.72,1.72,0,0,1-2.4,0l-.9-1a1.72,1.72,0,0,1,0-2.4l1-.9A1.72,1.72,0,0,1,477.9,306Z" class="cls-17"/><path d="M478.1,290.3l.9,1a1.72,1.72,0,0,1,0,2.4l-1,.9a1.72,1.72,0,0,1-2.4,0l-.9-1a1.72,1.72,0,0,1,0-2.4l1-.9A1.72,1.72,0,0,1,478.1,290.3Z" class="cls-17"/><path d="M478.4,274.7l.9,1a1.72,1.72,0,0,1,0,2.4l-1,.9a1.72,1.72,0,0,1-2.4,0l-.9-1a1.72,1.72,0,0,1,0-2.4l1-.9A1.63,1.63,0,0,1,478.4,274.7Z" class="cls-17"/><path d="M478.6,259l.9,1a1.72,1.72,0,0,1,0,2.4l-1,.9a1.72,1.72,0,0,1-2.4,0l-.9-1a1.72,1.72,0,0,1,0-2.4l1-.9A1.63,1.63,0,0,1,478.6,259Z" class="cls-17"/><path d="M492,306.2l.9,1a1.72,1.72,0,0,1,0,2.4l-1,.9a1.72,1.72,0,0,1-2.4,0l-.9-1a1.72,1.72,0,0,1,0-2.4l1-.9A1.72,1.72,0,0,1,492,306.2Z" class="cls-17"/><path d="M492.3,290.6l.9,1a1.72,1.72,0,0,1,0,2.4l-1,.9a1.72,1.72,0,0,1-2.4,0l-.9-1a1.72,1.72,0,0,1,0-2.4l1-.9A1.63,1.63,0,0,1,492.3,290.6Z" class="cls-17"/><path d="M492.5,274.9l.9,1a1.72,1.72,0,0,1,0,2.4l-1,.9a1.72,1.72,0,0,1-2.4,0l-.9-1a1.72,1.72,0,0,1,0-2.4l1-.9A1.63,1.63,0,0,1,492.5,274.9Z" class="cls-17"/><path d="M492.7,259.2l.9,1a1.72,1.72,0,0,1,0,2.4l-1,.9a1.72,1.72,0,0,1-2.4,0l-.9-1a1.72,1.72,0,0,1,0-2.4l1-.9A1.63,1.63,0,0,1,492.7,259.2Z" class="cls-17"/><path d="M506.1,306.5l.9,1a1.72,1.72,0,0,1,0,2.4l-1,.9a1.72,1.72,0,0,1-2.4,0l-.9-1a1.72,1.72,0,0,1,0-2.4l1-.9A1.63,1.63,0,0,1,506.1,306.5Z" class="cls-17"/><path d="M506.4,290.8l.9,1a1.72,1.72,0,0,1,0,2.4l-1,.9a1.72,1.72,0,0,1-2.4,0l-.9-1a1.72,1.72,0,0,1,0-2.4l1-.9A1.63,1.63,0,0,1,506.4,290.8Z" class="cls-17"/><path d="M506.6,275.1l.9,1a1.72,1.72,0,0,1,0,2.4l-1,.9a1.72,1.72,0,0,1-2.4,0l-.9-1a1.72,1.72,0,0,1,0-2.4l1-.9A1.63,1.63,0,0,1,506.6,275.1Z" class="cls-17"/><path d="M506.9,259.4l.9,1a1.72,1.72,0,0,1,0,2.4l-1,.9a1.72,1.72,0,0,1-2.4,0l-.9-1a1.72,1.72,0,0,1,0-2.4l1-.9A1.63,1.63,0,0,1,506.9,259.4Z" class="cls-17"/><path d="M520.3,306.7l.9,1a1.72,1.72,0,0,1,0,2.4l-1,.9a1.72,1.72,0,0,1-2.4,0l-.9-1a1.72,1.72,0,0,1,0-2.4l1-.9A1.63,1.63,0,0,1,520.3,306.7Z" class="cls-17"/><path d="M520.5,291l.9,1a1.72,1.72,0,0,1,0,2.4l-1,.9a1.72,1.72,0,0,1-2.4,0l-.9-1a1.72,1.72,0,0,1,0-2.4l1-.9A1.63,1.63,0,0,1,520.5,291Z" class="cls-17"/><path d="M520.7,275.3l.9,1a1.72,1.72,0,0,1,0,2.4l-1,.9a1.72,1.72,0,0,1-2.4,0l-.9-1a1.72,1.72,0,0,1,0-2.4l1-.9A1.63,1.63,0,0,1,520.7,275.3Z" class="cls-17"/><path d="M521,259.6l.9,1a1.72,1.72,0,0,1,0,2.4l-1,.9a1.72,1.72,0,0,1-2.4,0l-.9-1a1.72,1.72,0,0,1,0-2.4l1-.9A1.63,1.63,0,0,1,521,259.6Z" class="cls-17"/><path d="M534.4,306.9l.9,1a1.72,1.72,0,0,1,0,2.4l-1,.9a1.72,1.72,0,0,1-2.4,0l-.9-1a1.72,1.72,0,0,1,0-2.4l1-.9A1.63,1.63,0,0,1,534.4,306.9Z" class="cls-17"/><path d="M534.6,291.2l.9,1a1.72,1.72,0,0,1,0,2.4l-1,.9a1.72,1.72,0,0,1-2.4,0l-.9-1a1.72,1.72,0,0,1,0-2.4l1-.9A1.63,1.63,0,0,1,534.6,291.2Z" class="cls-17"/><path d="M534.9,275.5l.9,1a1.72,1.72,0,0,1,0,2.4l-1,.9a1.72,1.72,0,0,1-2.4,0l-.9-1a1.72,1.72,0,0,1,0-2.4l1-.9A1.63,1.63,0,0,1,534.9,275.5Z" class="cls-17"/><path d="M535.1,259.8l.9,1a1.72,1.72,0,0,1,0,2.4l-1,.9a1.72,1.72,0,0,1-2.4,0l-.9-1a1.72,1.72,0,0,1,0-2.4l1-.9A1.63,1.63,0,0,1,535.1,259.8Z" class="cls-17"/><path d="M548.5,307.1l.9,1a1.72,1.72,0,0,1,0,2.4l-1,.9a1.72,1.72,0,0,1-2.4,0l-.9-1a1.72,1.72,0,0,1,0-2.4l1-.9A1.63,1.63,0,0,1,548.5,307.1Z" class="cls-17"/><path d="M548.8,291.4l.9,1a1.72,1.72,0,0,1,0,2.4l-1,.9a1.72,1.72,0,0,1-2.4,0l-.9-1a1.72,1.72,0,0,1,0-2.4l1-.9A1.63,1.63,0,0,1,548.8,291.4Z" class="cls-17"/><path d="M549,275.7l.9,1a1.72,1.72,0,0,1,0,2.4l-1,.9a1.72,1.72,0,0,1-2.4,0l-.9-1a1.72,1.72,0,0,1,0-2.4l1-.9A1.63,1.63,0,0,1,549,275.7Z" class="cls-17"/><path d="M549.2,260l.9,1a1.72,1.72,0,0,1,0,2.4l-1,.9a1.72,1.72,0,0,1-2.4,0l-.9-1a1.72,1.72,0,0,1,0-2.4l1-.9A1.72,1.72,0,0,1,549.2,260Z" class="cls-17"/><path d="M562.6,307.3l.9,1a1.72,1.72,0,0,1,0,2.4l-1,.9a1.72,1.72,0,0,1-2.4,0l-.9-1a1.72,1.72,0,0,1,0-2.4l1-.9A1.63,1.63,0,0,1,562.6,307.3Z" class="cls-17"/><path d="M562.9,291.6l.9,1a1.72,1.72,0,0,1,0,2.4l-1,.9a1.72,1.72,0,0,1-2.4,0l-.9-1a1.72,1.72,0,0,1,0-2.4l1-.9A1.63,1.63,0,0,1,562.9,291.6Z" class="cls-17"/><path d="M563.1,275.9l.9,1a1.72,1.72,0,0,1,0,2.4l-1,.9a1.72,1.72,0,0,1-2.4,0l-.9-1a1.72,1.72,0,0,1,0-2.4l1-.9A1.72,1.72,0,0,1,563.1,275.9Z" class="cls-17"/><path d="M563.4,260.3l.9,1a1.72,1.72,0,0,1,0,2.4l-1,.9a1.72,1.72,0,0,1-2.4,0l-.9-1a1.72,1.72,0,0,1,0-2.4l1-.9A1.63,1.63,0,0,1,563.4,260.3Z" class="cls-17"/></g><path d="M502.8,279.3s-.2,11.8,12.9,12.6S539,279.2,537,270.1,502.8,266,502.8,279.3Z" class="cls-12"/><path d="M530,276.2c-6.3,7.2-18.7,11-26.9,5.8a12.6,12.6,0,0,0,3.6,6.5C516.6,291.9,526.1,285.6,530,276.2Z" class="cls-13"/><path d="M493.5,239.8a91,91,0,0,1,0,19.2c-1.1,11.1,6.2,24.7,18.1,26.5,12.8,2,25-5.1,28.6-27.1s-1.3-35.7-17.7-37S493.4,222.1,493.5,239.8Z" class="cls-12"/><path d="M547,242.1a36.07,36.07,0,0,1-2.8,11c-1.9,4.1-3.9,5.4-3.9,5.4l-12-6.6s-33.8,7.9-34.7-12.1a35.25,35.25,0,0,1,.3-6.6,24.54,24.54,0,0,1,5.2-12.3,10,10,0,0,1,1.4-1.5c6-5.9,15.2-8.4,26-6.7C545.7,215.6,548.4,229.1,547,242.1Z" class="cls-12"/><path d="M514,221.2c-12.1.2-21.4,3.5-20.5,18.6,0,0,.1,1.1.3,3,2.4-3.6,7.7-3.4,10.8-6.2A28.34,28.34,0,0,0,514,221.2Z" class="cls-13"/><path d="M548.7,235.5a6.85,6.85,0,0,0-1.4-4.2,7.51,7.51,0,0,0,.5-2.6,7.15,7.15,0,0,0-3.6-6.2,7.14,7.14,0,0,0-6.9-6.6,7.24,7.24,0,0,0-9.2-3.1,7.11,7.11,0,0,0-5.4-2.5,7.29,7.29,0,0,0-4.4,1.5,7.47,7.47,0,0,0-3.9-1.2,7.16,7.16,0,0,0-5.9,3.1,8.81,8.81,0,0,0-1.7-.2,7.11,7.11,0,0,0-6.8,5,7.21,7.21,0,0,0-6.1,7.1,3.08,3.08,0,0,0,.1,1c-1.3,2.6-1.1,6.7-.2,6.5a15.6,15.6,0,0,1,10.3,1c5.8,2.9,8.4,2.2,14.7,0,7-2.4,18-3.8,19.6,8.6.4,3.2-3.2,10.3,1.8,12.5,1.3.6,2.7-.4,4-2.3a16,16,0,0,0,1.1-2.9,7.05,7.05,0,0,0,3.4-6.1,6.85,6.85,0,0,0-1.4-4.2A6.64,6.64,0,0,0,548.7,235.5Z" class="cls-7"/><path d="M538.7,256.2s2.5-5.7,5.6-4c2.6,1.4.3,14.5-6.7,14.6" class="cls-12"/><path d="M510.1,252.2a9.65,9.65,0,0,1,.5,4.5,9.48,9.48,0,0,1-.5,2.3c-.3.7-.5,1.3-.8,2a6.78,6.78,0,0,0-.4,1.7,2.33,2.33,0,0,0,.7,1.4,4.4,4.4,0,0,0,3.6,1.4,4.11,4.11,0,0,1-4.5-.3,3.27,3.27,0,0,1-1.4-2.3,6.25,6.25,0,0,1,.4-2.5c.3-.7.6-1.4.9-2a10.66,10.66,0,0,0,.7-1.9C509.6,255.1,509.8,253.7,510.1,252.2Z" class="cls-7"/><path d="M511.7,272.2a8.38,8.38,0,0,1,8.1,2" class="cls-10"/><path d="M498.8,246.2c1.3-.3,2.5-1.3,5.2-1.4,1.8-.1,2.9,0,3.1-1.3.2-1-1-2.3-3-2.3C500.2,241.2,495.2,247.1,498.8,246.2Z" class="cls-7"/><path d="M529.8,247.6c-1.3-.4-2.3-1.5-5-1.9-1.8-.3-2.9-.3-2.9-1.6-.1-1.1,1.2-2.2,3.2-2C528.8,242.5,533.3,248.8,529.8,247.6Z" class="cls-7"/><path d="M504,256.1h0a1.83,1.83,0,0,0,1.8-1.6v-1a1.83,1.83,0,0,0-1.6-1.8h0a1.83,1.83,0,0,0-1.8,1.6v1A1.63,1.63,0,0,0,504,256.1Z" class="cls-7"/><path d="M523.6,256.9h0a1.83,1.83,0,0,0,1.8-1.6v-1a1.83,1.83,0,0,0-1.6-1.8h0a1.83,1.83,0,0,0-1.8,1.6v1A1.68,1.68,0,0,0,523.6,256.9Z" class="cls-7"/><path d="M543,257.1c-.4-.1-.8-.1-.9.1a1.17,1.17,0,0,0-.2.7,3.08,3.08,0,0,0-.1,1c0,.4-.1.7-.1,1.1a7.5,7.5,0,0,1-.7,2.3,2,2,0,0,1-1.2,1,1.94,1.94,0,0,1-1.3-.3c.4-.2.8-.3.9-.5a.84.84,0,0,0,.2-.7c.1-.6.1-1.3.2-2.1.1-.4.1-.8.2-1.1a3.08,3.08,0,0,1,.5-1.2,1.65,1.65,0,0,1,1.3-.9A.93.93,0,0,1,543,257.1Z" class="cls-7"/><path d="M482.9,257.7s-4.5,3.8-12.5,18.2c-6.4,11.6-11.9,28.9-19.7,38.6a20.19,20.19,0,0,1-6,5.4,30.33,30.33,0,0,1-4.8,2.2c-11.8,3.9-28.5.9-24-16.8s34.8-39.2,44.7-54.8S483.2,251.9,482.9,257.7Z" class="cls-12"/><path d="M450.7,314.5a20.19,20.19,0,0,1-6,5.4,30.33,30.33,0,0,1-4.8,2.2" class="cls-18"/><path d="M483.9,226.6s5.4-2.6,7.3-3.5,6.3-1.8,7.9-2.3,1.8,2.1-.9,4.5-7.5,8.9-10.8,9.6S482.3,228.6,483.9,226.6Z" class="cls-13"/><path d="M459.7,252.2s5.9-9.7,7.6-13.3c4.2-8.7,10.3-12.3,12.3-13.9s14.7-4.2,17.9-5.4c3-1.1,2.6,1.4,1.4,2.5-3.3,3-9.9,4.2-10.7,5.1,0,0,4.7-1.4,7.1-2.4a79.42,79.42,0,0,1,10.3-2.7c1.6-.3,2.6,1.5,0,3.2s-7.3,3.8-7.9,4.2-5.3,3.3-5.3,3.3,4.7,0,6.4-.1,5.3.1,6.2.1c2.4,0,2.8,3-2.1,3.8s-8,2.1-10.6,4.2c-3,2.4,1,9.2-11.1,18.5C481.3,259.3,462.6,264.9,459.7,252.2Z" class="cls-12"/><path d="M492.4,232.8a9.36,9.36,0,0,0-1.8.6,13.36,13.36,0,0,0-2.9,2.1" class="cls-18"/><path d="M488.2,227.2s-1.7.5-2.9,1a9.89,9.89,0,0,0-2.6,2" class="cls-18"/><path d="M461.2,249.4c2.5-.1,11.1.8,15.6,15.6a1.09,1.09,0,0,1-.2,1.1l-3.9,5.9a.19.19,0,0,1-.3,0c-.7-2.2-5.1-15.5-15.4-16.4a.52.52,0,0,1-.4-.8c.9-1.3,2.7-3.8,3.5-4.8A1.38,1.38,0,0,1,461.2,249.4Z" class="cls-7"/><ellipse transform="translate(12.12 530.45) rotate(-60)" ry="4.8" rx="5.1" cy="254.73" cx="465.45" class="cls-19"/><path d="M578.4,336.6s4.8-1.3,13.7-11.8-7-.4-7.9,0S578.4,336.6,578.4,336.6Z" class="cls-7"/><path d="M623.3,337.8c-2.8-7.8-12.3-21.2-22.6-33.7-8.7,8-17.7,15.8-25.7,24.2,5.4,4.8,10.2,9,10.2,9-1.4.7-4,2.1-6.7,3.4,4.7,7.7,8.1,16.5,8.7,25.3,9.3.2,19.8.4,24.7-1.6C620.7,360.9,628.6,352.5,623.3,337.8Z" class="cls-12"/><path d="M569.6,345.1s-1.7-2.4-2.5-3.3-5.4-4-7.3-5.6-3.5.7-1.8,3.5,2.7,7.6,4,8.9S569.8,348.7,569.6,345.1Z" class="cls-12"/><path d="M604.4,308.6s-16,11.6-26,28.1c0,0-17-16.4-20.1-22s-2.8-21.4,4.4-30.4,13.5-6.3,13.5-6.3A195.34,195.34,0,0,1,604.4,308.6Z" class="cls-9"/><path d="M573.9,332.2s10.6-18.9,26.6-28.7" class="cls-10"/><path d="M585.1,337.3s10.5-6.7,19.2-5" class="cls-18"/><path d="M518.8,319.8l44.8-7.1a3.05,3.05,0,0,1,3.5,3.4l-7.4,50.5a3.11,3.11,0,0,1-2.3,2.5l-43.9,10.7a3,3,0,0,1-3.7-3.2l4-51.5A5.75,5.75,0,0,1,518.8,319.8Z" class="cls-7"/><path d="M532.2,316.6l-.3,3.7c0,.5.5.9,1.2.8l17.8-3.2a1.5,1.5,0,0,0,1.4-1.3l.2-2.7a.89.89,0,0,0-1.1-.8l-17.7,2.2A1.72,1.72,0,0,0,532.2,316.6Z" class="cls-9"/><path d="M569.6,345.1s-6-1.4-7.4-1-6.3,1-9.9,1.8-10.1.5-12.5,1.4a2.32,2.32,0,0,0-1.5,3.1s-2.5-.5-3.3.8c-1.2,1.9,1.3,3.1,1.3,3.1-2-.6-3.7.7-2.8,2.6.7,1.4,4,3.5,6.9,4.9a88.7,88.7,0,0,0,8.5,3.2s-2.6-.3-5.7-.6c-2.9-.2-4.2,1.2-2.5,2.8s12.2,4.6,16.1,3.7,8.2-3.3,14-4.8c2.5-.6,9-.4,16.3-.2-.6-8.8-3.9-17.6-8.7-25.3C574.1,342.9,569.6,345.1,569.6,345.1Z" class="cls-12"/><path d="M536.3,354.4s5.1,2.2,9.3,3.6,8.7,1.2,9.9,1.7" class="cls-18"/><path d="M548.9,365s3.8,1.4,5.9.7" class="cls-18"/><path d="M538.4,350.4a44.9,44.9,0,0,0,8.1,2.2c3.3.4,8.7.4,9.4.4" class="cls-18"/><circle r="1.2" cy="297" cx="518.8" class="cls-7"/><path d="M514.4,291.8s-1.2,2.5-.4,13.5" class="cls-10"/><path d="M285,410.3l-2.5,195.1a3.78,3.78,0,0,0,3.7,3.8h0a3.67,3.67,0,0,0,3.7-3.6l8.3-195.3Z" class="cls-20"/><path d="M733.9,410.3l2.5,195.1a3.78,3.78,0,0,1-3.7,3.8h0a3.67,3.67,0,0,1-3.7-3.6l-8.3-195.3Z" class="cls-20"/><polygon points="298.3 410.3 285 410.3 284.8 425.2 297.7 425.2 298.3 410.3" class="cls-9"/><polygon points="733.9 410.3 720.6 410.3 721.2 425.2 734.1 425.2 733.9 410.3" class="cls-9"/><path d="M341.8,406.7l-1.9,145.7a2.73,2.73,0,0,0,2.8,2.8h0a2.84,2.84,0,0,0,2.8-2.7l6.2-145.9h-9.9Z" class="cls-20"/><path d="M677,406.7l1.9,145.7a2.73,2.73,0,0,1-2.8,2.8h0a2.84,2.84,0,0,1-2.8-2.7l-6.2-145.9H677Z" class="cls-20"/><polygon points="761.7 406.3 257.2 406.3 318.2 369.2 700.7 369.2 761.7 406.3" class="cls-19"/><rect height="8" width="504.5" y="406.3" x="257.2" class="cls-20"/><polygon points="378.6 371.7 409.6 393.2 416.2 393.3 458.5 374.4 378.6 371.7" class="cls-21"/><path d="M416.2,393.3l4,.1a12.86,12.86,0,0,0,5.8-1.2l30.5-14.5a3.38,3.38,0,0,0,2-3.3h-.1Z" class="cls-7"/><path d="M313,389.4l105.5,4.1a4.57,4.57,0,0,0,4.6-5.6L408,326a8.34,8.34,0,0,0-7.9-6.3L295,318.1a3.37,3.37,0,0,0-3.3,4.2l17,63.6A4.55,4.55,0,0,0,313,389.4Z" class="cls-7"/><ellipse transform="translate(-144.53 416.58) rotate(-52.23)" ry="7.5" rx="6.3" cy="355.7" cx="352.62" class="cls-21"/><path d="M326.3,276.7l-66.8-1.2a2.65,2.65,0,0,1-2.5-2.1l-4.5-21.5a2.17,2.17,0,0,1,2.2-2.6l66.8,1.2a2.65,2.65,0,0,1,2.5,2.1l4.5,21.5A2.22,2.22,0,0,1,326.3,276.7Z" class="cls-12"/><ellipse transform="translate(-102.6 291.8) rotate(-48.87)" ry="3.5" rx="2.8" cy="258.81" cx="269.83" class="cls-7"/><path d="M275.2,269.7l-6.3-.1a3.4,3.4,0,0,1-3.1-2.6h0a4.32,4.32,0,0,1,4.5-5.5h0a7.67,7.67,0,0,1,6.9,5.7h0A1.9,1.9,0,0,1,275.2,269.7Z" class="cls-7"/><path d="M301.3,265.2l-17.7-.3a.85.85,0,0,1-.8-.7l-.5-2.3a.85.85,0,0,1,.8-1l17.7.3a.85.85,0,0,1,.8.7l.5,2.3A.85.85,0,0,1,301.3,265.2Z" class="cls-9"/><line y2="267" x2="316.7" y1="259.9" x1="308.3" class="cls-10"/><line y2="266.8" x2="309.7" y1="260" x1="315.3" class="cls-10"/><path d="M394.9,312.3l-66.8-1.2a2.65,2.65,0,0,1-2.5-2.1l-4.5-21.5a2.17,2.17,0,0,1,2.2-2.6l66.8,1.2a2.65,2.65,0,0,1,2.5,2.1l4.5,21.5A2.22,2.22,0,0,1,394.9,312.3Z" class="cls-11"/><ellipse transform="translate(-105.92 355.63) rotate(-48.87)" ry="3.5" rx="2.8" cy="294.38" cx="338.41" class="cls-7"/><path d="M343.8,305.3l-6.3-.1a3.4,3.4,0,0,1-3.1-2.6h0a4.32,4.32,0,0,1,4.5-5.5h0a7.67,7.67,0,0,1,6.9,5.7h0A1.9,1.9,0,0,1,343.8,305.3Z" class="cls-7"/><path d="M369.8,300.8l-17.7-.3a.85.85,0,0,1-.8-.7l-.5-2.3a.85.85,0,0,1,.8-1l17.7.3a.85.85,0,0,1,.8.7l.5,2.3A.85.85,0,0,1,369.8,300.8Z" class="cls-9"/><line y2="302.6" x2="385.3" y1="295.5" x1="376.8" class="cls-10"/><line y2="302.4" x2="378.3" y1="295.6" x1="383.8" class="cls-10"/><path d="M271.1,275.7l3.7,17.4a5,5,0,0,0,4.9,4l3.9.1" class="cls-10"/><line y2="298" x2="323.3" y1="297.7" x1="308" class="cls-10"/><path d="M306.9,291l-3.5,3.7a1.24,1.24,0,0,1-1.4.3,4,4,0,0,0-4.5.8l-3.9,4.1a3.93,3.93,0,0,0-.6,4.6,1.21,1.21,0,0,1-.2,1.4l-3.5,3.7a1.17,1.17,0,0,1-2-.5l-.3-1.4a8.61,8.61,0,0,1,2.2-8.1l7.8-8.2a8.91,8.91,0,0,1,8-2.6l1.4.3A1.17,1.17,0,0,1,306.9,291Z" class="cls-7"/><path d="M474.8,203.8s-4.4,4.8-10.3,0,1.7-14,4.1-11.5-10.5,7.4-10.9,1.1,6.8-6.7-3.3-14.6" class="cls-22"/><path d="M508.1,194s6.7-2.4,4.3-7.8-8.6,0-4.3,0,7.4-4.6,4.8-10.9" class="cls-22"/><path d="M552.5,204.3s8.3,3,6.1-2.8-2-7.8,3.1-5.5,5.4-2.5,7.2-3.6" class="cls-22"/><path d="M596.2,241.3l-3.4,3.6a1.52,1.52,0,0,0,0,2h0a1.68,1.68,0,0,0,1.9.3l3.9-2.4Z" class="cls-7"/><path d="M626.4,250l.9,4.8a1.47,1.47,0,0,1-1.1,1.7h0a1.38,1.38,0,0,1-1.7-.8l-2-4.1Z" class="cls-7"/><circle r="22.5" cy="231.7" cx="615.3" class="cls-9"/><circle r="14.5" cy="231.7" cx="615.3" class="cls-11"/><polyline points="619.4 236.9 615.3 231.7 617.4 224.5" class="cls-14"/><path d="M600.9,209.9a1.13,1.13,0,0,1-1.5-.8,6.49,6.49,0,0,1,11.9-4.5,1.05,1.05,0,0,1-.6,1.6Z" class="cls-9"/><path d="M639.2,221a1.09,1.09,0,0,0,1.7.1,6.48,6.48,0,0,0,.3-8.2,6.57,6.57,0,0,0-8-2,1.17,1.17,0,0,0-.4,1.7Z" class="cls-9"/><path d="M625.5,207.5l-5.9-1.7a1.8,1.8,0,0,1-1.2-2.3h0a1.8,1.8,0,0,1,2.3-1.2l5.9,1.7a1.8,1.8,0,0,1,1.2,2.3h0A1.8,1.8,0,0,1,625.5,207.5Z" class="cls-9"/><rect transform="translate(248.34 747.61) rotate(-73.8)" height="4.4" width="5.8" y="206.23" x="619.13" class="cls-9"/><path d="M576,184H544.8l-3.2,2.1a1.56,1.56,0,0,1-2.4-1.3v-22a4.12,4.12,0,0,1,4.1-4.1H576a4.12,4.12,0,0,1,4.1,4.1V180A4.17,4.17,0,0,1,576,184Z" class="cls-12"/><line y2="168.7" x2="570.2" y1="168.7" x1="559.3" class="cls-10"/><line y2="174.4" x2="565.9" y1="174.4" x1="559.3" class="cls-10"/><rect height="5.6" width="5.6" y="168.7" x="548" class="cls-10"/><path d="M587,380.8a14.92,14.92,0,0,1-9.4,5.7,9.85,9.85,0,0,1-1.7.2c-9.2.7-15.9-5.9-15.9-5.9Z" class="cls-9"/><path d="M634.5,375.1s-3,9.8-12.6,11.5a17.36,17.36,0,0,1-4.5.2H575.9a9.85,9.85,0,0,0,1.7-.2,15.81,15.81,0,0,0,9.4-5.7,20.19,20.19,0,0,0,3.2-5.7h44.3Z" class="cls-7"/><path d="M752.7,322.1l-90.5-6a5.34,5.34,0,0,1-5-5.6l4.6-89.7a7.46,7.46,0,0,1,6.1-7l92.3-17.9a5.36,5.36,0,0,1,6.4,5.6l-7.4,115A6.12,6.12,0,0,1,752.7,322.1Z" class="cls-21"/><path d="M749.7,322l-90.5-6a5.34,5.34,0,0,1-5-5.6l4.6-89.7a7.46,7.46,0,0,1,6.1-7l92.3-17.9a5.36,5.36,0,0,1,6.4,5.6l-7.4,115A6.19,6.19,0,0,1,749.7,322Z" class="cls-7"/><path d="M741.6,239.4l-70.2,7.5a2,2,0,0,1-2.2-2.1l.8-15.9a1.84,1.84,0,0,1,1.7-1.8l70.5-11a2,2,0,0,1,2.3,2.1l-1.2,19.4A1.84,1.84,0,0,1,741.6,239.4Z" class="cls-9"/><line y2="245.8" x2="681.7" y1="225.4" x1="682.8" class="cls-10"/><line y2="240.5" x2="678.7" y1="232.4" x1="673.7" class="cls-10"/><line y2="241.2" x2="673.2" y1="231.6" x1="679.2" class="cls-10"/><line y2="225.4" x2="735" y1="231.8" x1="688.6" class="cls-10"/><line y2="234.6" x2="713.3" y1="237.8" x1="688.3" class="cls-10"/><path d="M739.5,271.7l-69.6,2.7a1.92,1.92,0,0,1-2-2.1l.8-15.8a2,2,0,0,1,1.8-1.9l70-6.2a1.94,1.94,0,0,1,2.1,2.1l-1.2,19.2A2,2,0,0,1,739.5,271.7Z" class="cls-12"/><line y2="274" x2="680.2" y1="253.8" x1="681.3" class="cls-10"/><line y2="268.6" x2="677.2" y1="260.1" x1="672.2" class="cls-10"/><line y2="268.9" x2="671.7" y1="259.7" x1="677.7" class="cls-10"/><line y2="257.3" x2="733.1" y1="260.6" x1="687.1" class="cls-10"/><line y2="265.1" x2="711.5" y1="266.5" x1="686.7" class="cls-10"/><path d="M737.4,303.8l-69-2a2,2,0,0,1-1.9-2.1l.8-15.7a2.13,2.13,0,0,1,1.9-1.9l69.4-1.4a2,2,0,0,1,2,2.1l-1.2,19.1A2,2,0,0,1,737.4,303.8Z" class="cls-11"/><line y2="302.1" x2="678.7" y1="282" x1="679.8" class="cls-10"/><line y2="296.4" x2="675.7" y1="287.7" x1="670.7" class="cls-10"/><line y2="296.3" x2="670.3" y1="287.6" x1="676.2" class="cls-10"/><line y2="289.1" x2="731.2" y1="289.2" x1="685.5" class="cls-10"/><line y2="295.3" x2="709.8" y1="295" x1="685.2" class="cls-10"/><path d="M351.5,264.1l-14.3-67.6a2.41,2.41,0,0,1,2.4-2.9h67.3a4,4,0,0,1,3.9,3.3L422,265.2a2.42,2.42,0,0,1-2.4,2.8l-64.2-.8A3.89,3.89,0,0,1,351.5,264.1Z" class="cls-20"/><path d="M350,265.7l-14.3-67.6a2.41,2.41,0,0,1,2.4-2.9h67.3a4,4,0,0,1,3.9,3.3l11.2,68.3a2.42,2.42,0,0,1-2.4,2.8l-64.2-.8A4,4,0,0,1,350,265.7Z" class="cls-9"/><polygon points="357.7 260.3 345.8 203.9 401.4 203.9 410.7 260.9 357.7 260.3" class="cls-10"/><line y2="260.5" x2="374.2" y1="203.9" x1="362.2" class="cls-10"/><line y2="218.2" x2="403.4" y1="218.2" x1="348.8" class="cls-10"/><line y2="232" x2="405.8" y1="232" x1="351.7" class="cls-10"/><line y2="246.7" x2="408.4" y1="246" x1="355" class="cls-10"/><line y2="210.9" x2="393.1" y1="210.9" x1="371.8" class="cls-10"/><line y2="225.1" x2="395.9" y1="225.1" x1="374.6" class="cls-10"/><line y2="239.3" x2="399.1" y1="239" x1="377.8" class="cls-10"/><line y2="253.2" x2="401.3" y1="252.7" x1="380.8" class="cls-10"/><line y2="214.2" x2="360.4" y1="207.5" x1="351.6" class="cls-23"/><line y2="214.2" x2="353.5" y1="207.5" x1="358" class="cls-23"/><line y2="242.3" x2="366" y1="235.7" x1="357.2" class="cls-23"/><line y2="242.3" x2="359" y1="235.7" x1="363.6" class="cls-23"/><line y2="256.3" x2="369.2" y1="249.6" x1="360.4" class="cls-23"/><line y2="256.3" x2="362.3" y1="249.6" x1="366.8" class="cls-23"/><polyline points="355 224.3 358 227.4 362.3 221.8" class="cls-24"/><path d="M670.8,319.9s.1-9.5-2.4-15c0,0-27,4.9-32,7.8,0,0,4.5,4.5,5.9,10S670.6,329.2,670.8,319.9Z" class="cls-19"/><path d="M671.6,326.8s1.7-17.3,2.5-20.9c0,0-21.9,1.8-30.1,6.5l2.2,18.3Z" class="cls-12"/><path d="M695.9,340.2s-.1-12.8,3.4-18.9c0,0-20.6.4-25.2,3.1s-4,15.7-4,15.7S695,341.6,695.9,340.2Z" class="cls-19"/><rect height="62.5" width="22.7" y="334.6" x="676.6" class="cls-9"/><circle r="4.4" cy="384.1" cx="688" class="cls-10"/><polygon points="653.9 397.2 653.9 319.9 640.3 323.2 640.3 389.1 653.9 397.2" class="cls-9"/><rect height="77.3" width="22.7" y="319.9" x="653.9" class="cls-11"/><circle r="4.4" cy="384.1" cx="665.2" class="cls-10"/><line y2="367.2" x2="670.8" y1="367.2" x1="659.7" class="cls-10"/><line y2="371.6" x2="670.8" y1="371.6" x1="659.7" class="cls-10"/></svg>